<?xml version="1.0" encoding="iso-8859-1"?>
<!-- Generator: Adobe Illustrator 19.0.0, SVG Export Plug-In . SVG Version: 6.00 Build 0)  -->
<svg version="1.1" id="Layer_1" xmlns="http://www.w3.org/2000/svg" xmlns:xlink="http://www.w3.org/1999/xlink" x="0px" y="0px"
	 viewBox="0 0 512 512" style="enable-background:new 0 0 512 512;" xml:space="preserve">
<path style="fill:#6D6E71;" d="M417.075,380.054V130.773c0-26.021,39.385-26.049,39.385,0v249.281
	C456.46,406.075,417.075,406.103,417.075,380.054z"/>
<g>
	<path style="fill:#808285;" d="M381.227,456.46H130.773c-26.021,0-26.049-39.385,0-39.385h250.455
		C407.249,417.075,407.275,456.46,381.227,456.46z"/>
	<path style="fill:#808285;" d="M379.069,94.925H130.773c-26.021,0-26.049-39.385,0-39.385h248.296
		C405.09,55.54,405.118,94.925,379.069,94.925z"/>
	<path style="fill:#808285;" d="M55.54,380.055V130.773c0-26.021,39.385-26.049,39.385,0v249.281
		C94.925,406.076,55.54,406.103,55.54,380.055z"/>
</g>
<g>
	<path style="fill:#28C3E4;" d="M75.232,150.465C33.749,150.465,0,116.715,0,75.232C0,33.749,33.749,0,75.232,0
		s75.232,33.749,75.232,75.232C150.465,116.715,116.715,150.465,75.232,150.465z"/>
	<path style="fill:#28C3E4;" d="M75.232,512C33.749,512,0,478.251,0,436.768s33.749-75.232,75.232-75.232
		s75.232,33.749,75.232,75.232S116.715,512,75.232,512z"/>
</g>
<g>
	<path style="fill:#6D6E71;" d="M381.227,417.075H254.921v39.385h126.306C407.275,456.46,407.249,417.075,381.227,417.075z"/>
	<path style="fill:#6D6E71;" d="M379.069,55.54H254.921v39.385h124.148C405.118,94.925,405.09,55.54,379.069,55.54z"/>
</g>
<g>
	<path style="fill:#28B6E4;" d="M436.768,150.465c-41.484,0-75.232-33.75-75.232-75.232C361.535,33.749,395.285,0,436.768,0
		C478.251,0,512,33.749,512,75.232C512,116.715,478.251,150.465,436.768,150.465z"/>
	<path style="fill:#28B6E4;" d="M436.768,512c-41.484,0-75.232-33.749-75.232-75.232s33.749-75.232,75.232-75.232
		S512,395.284,512,436.768S478.251,512,436.768,512z"/>
</g>
<g>
</g>
<g>
</g>
<g>
</g>
<g>
</g>
<g>
</g>
<g>
</g>
<g>
</g>
<g>
</g>
<g>
</g>
<g>
</g>
<g>
</g>
<g>
</g>
<g>
</g>
<g>
</g>
<g>
</g>
</svg>
