<?xml version="1.0" encoding="iso-8859-1"?>
<!-- Generator: Adobe Illustrator 19.0.0, SVG Export Plug-In . SVG Version: 6.00 Build 0)  -->
<svg version="1.1" id="Layer_1" xmlns="http://www.w3.org/2000/svg" xmlns:xlink="http://www.w3.org/1999/xlink" x="0px" y="0px"
	 viewBox="0 0 512.001 512.001" style="enable-background:new 0 0 512.001 512.001;" xml:space="preserve">
<path style="fill:#28D2E4;" d="M424.446,284.553H87.555c-9.963,0-18.04-8.077-18.04-18.04V61.675c0-9.963,8.077-18.04,18.04-18.04
	h336.891c9.963,0,18.04,8.077,18.04,18.04v204.838C442.486,276.475,434.409,284.553,424.446,284.553z"/>
<path style="fill:#28C3E4;" d="M424.446,43.635H256v240.918h168.445c9.963,0,18.04-8.077,18.04-18.04V61.675
	C442.486,51.71,434.409,43.635,424.446,43.635z"/>
<path style="fill:#6D6E71;" d="M290.872,352.831c-1.339,0-2.696-0.15-4.057-0.462c-9.71-2.232-15.773-11.912-13.541-21.623
	l72.791-316.744c2.231-9.709,11.906-15.773,21.623-13.541c9.71,2.232,15.773,11.912,13.541,21.623l-72.793,316.744
	C306.518,347.178,299.089,352.831,290.872,352.831z"/>
<path style="fill:#FFDB77;" d="M393.874,511.999H118.127c-26.847,0-48.612-21.765-48.612-48.612V248.471h372.971v214.916
	C442.486,490.236,420.721,511.999,393.874,511.999z"/>
<path style="fill:#FF905E;" d="M256,248.473v263.528h137.874c26.847,0,48.612-21.765,48.612-48.612V248.473H256z"/>
<g>
	<path style="fill:#28C3E4;" d="M196.284,147.989h-53.355c-9.963,0-18.04-8.077-18.04-18.04s8.077-18.04,18.04-18.04h53.355
		c9.963,0,18.04,8.077,18.04,18.04S206.247,147.989,196.284,147.989z"/>
	<path style="fill:#28C3E4;" d="M196.284,216.268h-53.355c-9.963,0-18.04-8.077-18.04-18.04s8.077-18.04,18.04-18.04h53.355
		c9.963,0,18.04,8.077,18.04,18.04C214.324,208.192,206.247,216.268,196.284,216.268z"/>
	<path style="fill:#28C3E4;" d="M196.284,352.828h-53.355c-9.963,0-18.04-8.077-18.04-18.04c0-9.963,8.077-18.04,18.04-18.04h53.355
		c9.963,0,18.04,8.077,18.04,18.04C214.324,344.751,206.247,352.828,196.284,352.828z"/>
	<path style="fill:#28C3E4;" d="M196.284,283.679h-53.355c-9.963,0-18.04-8.077-18.04-18.04c0-9.963,8.077-18.04,18.04-18.04h53.355
		c9.963,0,18.04,8.077,18.04,18.04C214.324,275.602,206.247,283.679,196.284,283.679z"/>
	<path style="fill:#28C3E4;" d="M196.284,421.108h-53.355c-9.963,0-18.04-8.077-18.04-18.04c0-9.963,8.077-18.04,18.04-18.04h53.355
		c9.963,0,18.04,8.077,18.04,18.04C214.324,413.031,206.247,421.108,196.284,421.108z"/>
	<path style="fill:#28C3E4;" d="M472.48,79.709H39.521c-9.963,0-18.04-8.077-18.04-18.04s8.077-18.04,18.04-18.04h432.96
		c9.963,0,18.04,8.077,18.04,18.04S482.443,79.709,472.48,79.709z"/>
</g>
<path style="fill:#28B6E4;" d="M472.48,43.629H256v36.08h216.48c9.963,0,18.04-8.077,18.04-18.04S482.443,43.629,472.48,43.629z"/>
<circle style="fill:#DC554F;" cx="334.677" cy="404.468" r="36.752"/>
<g>
</g>
<g>
</g>
<g>
</g>
<g>
</g>
<g>
</g>
<g>
</g>
<g>
</g>
<g>
</g>
<g>
</g>
<g>
</g>
<g>
</g>
<g>
</g>
<g>
</g>
<g>
</g>
<g>
</g>
</svg>
