<?xml version="1.0" encoding="iso-8859-1"?>
<!-- Generator: Adobe Illustrator 19.0.0, SVG Export Plug-In . SVG Version: 6.00 Build 0)  -->
<svg version="1.1" id="Layer_1" xmlns="http://www.w3.org/2000/svg" xmlns:xlink="http://www.w3.org/1999/xlink" x="0px" y="0px"
	 viewBox="0 0 512 512" style="enable-background:new 0 0 512 512;" xml:space="preserve">
<path style="fill:#28D2E4;" d="M345.052,336.968H166.949c-13.733,0-22.315-14.901-15.459-26.775l23.111-40.033V101.327
	c0-9.858,7.992-17.851,17.851-17.851H319.55c9.858,0,17.851,7.992,17.851,17.851V270.16l23.111,40.033
	C367.377,322.084,358.767,336.968,345.052,336.968z"/>
<path style="fill:#28C3E4;" d="M360.511,310.193l-23.111-40.033V101.327c0-9.858-7.992-17.851-17.851-17.851H256v253.492h89.052
	C358.767,336.968,367.377,322.084,360.511,310.193z"/>
<path style="fill:#FFDB77;" d="M429.582,429.802l-69.07-119.612c-0.005-0.007-0.009-0.014-0.014-0.023l-5.139-8.902
	c-8.671,0-189.936,0-198.715,0l-5.139,8.902c-0.005,0.007-0.01,0.014-0.014,0.023L82.416,429.809
	C61.348,466.334,87.661,512,129.879,512h252.244C424.362,512,450.647,466.324,429.582,429.802z"/>
<g>
	<path style="fill:#FF905E;" d="M429.582,429.802l-69.07-119.612c-0.005-0.007-0.009-0.014-0.014-0.023l-5.139-8.902
		c-4.337,0-51.847,0-99.358,0V512h126.122C424.362,512,450.647,466.324,429.582,429.802z"/>
	<circle style="fill:#FF905E;" cx="213.28" cy="30.025" r="15.471"/>
</g>
<path style="fill:#28C3E4;" d="M348.692,119.176H163.31c-9.858,0-17.851-7.992-17.851-17.851s7.992-17.851,17.851-17.851h185.382
	c9.858,0,17.851,7.992,17.851,17.851S358.55,119.176,348.692,119.176z"/>
<g>
	<circle style="fill:#FF905E;" cx="185.123" cy="415.743" r="15.471"/>
	<circle style="fill:#FF905E;" cx="256.003" cy="415.743" r="30.025"/>
</g>
<circle style="fill:#DC554F;" cx="296.06" cy="30.025" r="30.025"/>
<path style="fill:#28B6E4;" d="M348.692,83.475H256v35.701h92.692c9.858,0,17.851-7.992,17.851-17.851S358.55,83.475,348.692,83.475
	z"/>
<g>
	<path style="fill:#DC554F;" d="M256,385.721L256,385.721l-0.001,60.05H256c16.582,0,30.025-13.443,30.025-30.025
		C286.025,399.163,272.582,385.721,256,385.721z"/>
	<circle style="fill:#DC554F;" cx="326.882" cy="415.743" r="15.471"/>
</g>
<g>
</g>
<g>
</g>
<g>
</g>
<g>
</g>
<g>
</g>
<g>
</g>
<g>
</g>
<g>
</g>
<g>
</g>
<g>
</g>
<g>
</g>
<g>
</g>
<g>
</g>
<g>
</g>
<g>
</g>
</svg>
