<?xml version="1.0" encoding="iso-8859-1"?>
<!-- Generator: Adobe Illustrator 19.0.0, SVG Export Plug-In . SVG Version: 6.00 Build 0)  -->
<svg version="1.1" id="Layer_1" xmlns="http://www.w3.org/2000/svg" xmlns:xlink="http://www.w3.org/1999/xlink" x="0px" y="0px"
	 viewBox="0 0 512.003 512.003" style="enable-background:new 0 0 512.003 512.003;" xml:space="preserve">
<path style="fill:#28C3E4;" d="M470.023,504.99H41.977C18.831,504.99,0,486.158,0,463.012V147.014
	c0-23.146,18.831-41.977,41.977-41.977h98.484c18.781,0,34.987,12.196,40.329,30.348c7.364,25.029,34.099,63.031,73.351,104.263
	c1.01,1.059,2.71,1.061,3.721,0c39.253-41.236,65.989-79.238,73.35-104.263c5.341-18.154,21.549-30.35,40.33-30.35h98.484
	c23.146,0,41.977,18.831,41.977,41.977v315.999C512,486.158,493.169,504.99,470.023,504.99z"/>
<path style="fill:#28B6E4;" d="M470.023,105.036h-98.484c-18.781,0-34.988,12.196-40.33,30.35
	c-7.361,25.025-34.097,63.027-73.35,104.263c-0.505,0.53-1.183,0.794-1.86,0.794V504.99h214.023
	c23.146,0,41.977-18.831,41.977-41.977V147.014C512,123.867,493.169,105.036,470.023,105.036z"/>
<path style="fill:#28D2E4;" d="M158.984,434.718h-81.66c-10.875,0-19.692-8.817-19.692-19.692s8.817-19.692,19.692-19.692h81.661
	c10.875,0,19.692,8.817,19.692,19.692C178.676,425.901,169.859,434.718,158.984,434.718z"/>
<path style="fill:#28B6E4;" d="M442.075,173.779l-69.871-59.601C367.398,54.283,317.118,7.013,255.999,7.013
	c-61.117,0-111.397,47.267-116.206,107.162l-69.875,59.605c-9.013,7.688-9.241,21.551-0.49,29.532l40.037,36.513l-13.183,36.23
	c-3.551,9.757,1.084,20.593,10.592,24.766l129.434,56.797V504.99h39.385V357.616l129.427-56.795
	c9.507-4.172,14.142-15.009,10.592-24.766l-13.183-36.231l40.037-36.513C451.318,195.329,451.088,181.465,442.075,173.779z"/>
<path style="fill:#289EE4;" d="M442.075,173.779l-69.871-59.601C367.398,54.283,317.118,7.013,255.999,7.013v497.975h19.692V357.616
	l129.427-56.795c9.507-4.172,14.142-15.009,10.592-24.766l-13.183-36.231l40.037-36.513
	C451.318,195.329,451.088,181.465,442.075,173.779z"/>
<g>
	<path style="fill:#28C3E4;" d="M256,260.352c-7.957-7.911-25.214-25.617-42.845-47.238c-17.793-21.818-46.677-60.753-47.476-88.663
		c-0.011-0.291-0.009-0.584-0.009-0.865c0-49.801,40.522-90.315,90.33-90.315c49.807,0,90.33,40.515,90.33,90.315
		c0,0.285,0.001,0.58-0.009,0.876l-0.005,0.163c-0.379,14.278-8.923,41.221-47.47,88.489
		C281.211,234.736,263.956,252.441,256,260.352z"/>
	<path style="fill:#28C3E4;" d="M448.989,395.334H338.704c-10.875,0-19.692,8.817-19.692,19.692v89.964h149.669v-89.964
		C468.681,404.151,459.864,395.334,448.989,395.334z"/>
</g>
<path style="fill:#28B6E4;" d="M256,33.27v227.081c7.956-7.91,25.211-25.616,42.845-47.238
	c38.547-47.268,47.091-74.211,47.47-88.489l0.005-0.163c0.01-0.295,0.009-0.591,0.009-0.876C346.33,73.786,305.807,33.27,256,33.27z
	"/>
<g>
</g>
<g>
</g>
<g>
</g>
<g>
</g>
<g>
</g>
<g>
</g>
<g>
</g>
<g>
</g>
<g>
</g>
<g>
</g>
<g>
</g>
<g>
</g>
<g>
</g>
<g>
</g>
<g>
</g>
</svg>
