<?xml version="1.0" encoding="iso-8859-1"?>
<!-- Generator: Adobe Illustrator 19.0.0, SVG Export Plug-In . SVG Version: 6.00 Build 0)  -->
<svg version="1.1" id="Layer_1" xmlns="http://www.w3.org/2000/svg" xmlns:xlink="http://www.w3.org/1999/xlink" x="0px" y="0px"
	 viewBox="0 0 512 512" style="enable-background:new 0 0 512 512;" xml:space="preserve">
<path style="fill:#808285;" d="M168.551,343.509c-7.69-7.69-7.69-20.158,0-27.849l53.35-53.349c7.689-7.689,20.158-7.692,27.849,0
	c7.69,7.69,7.69,20.158,0,27.849l-53.35,53.349C188.709,351.199,176.24,351.2,168.551,343.509z"/>
<path style="fill:#6D6E71;" d="M249.748,262.311c-0.001-0.001-0.001-0.001-0.003-0.003l-81.198,81.198
	c0.001,0.001,0.003,0.001,0.003,0.003c7.689,7.692,20.158,7.689,27.849,0l53.35-53.349
	C257.439,282.47,257.44,270.001,249.748,262.311z"/>
<path style="fill:#FFDB77;" d="M221.9,290.159c-66.417-66.414-66.426-173.919,0-240.343l0,0l0,0
	c66.418-66.418,173.92-66.424,240.343,0c66.263,66.263,66.263,174.082,0,240.343C395.827,356.58,288.324,356.585,221.9,290.159z"/>
<path style="fill:#FF905E;" d="M462.244,49.816c-0.001-0.001-0.003-0.001-0.003-0.003L221.897,290.157
	c0.001,0.001,0.001,0.001,0.001,0.001c66.424,66.427,173.927,66.421,240.345,0.001C528.506,223.896,528.506,116.079,462.244,49.816z
	"/>
<path style="fill:#28D2E4;" d="M273.584,238.475L273.584,238.475c-37.764-37.764-37.764-99.211,0-136.974s99.209-37.763,136.974,0
	c37.806,37.805,37.808,99.166,0,136.974C372.795,276.238,311.348,276.239,273.584,238.475z"/>
<path style="fill:#FFDB77;" d="M22.804,489.257L22.804,489.257c-30.326-30.326-30.326-79.668,0-109.993l104.675-104.675
	c7.684-7.685,20.161-7.689,27.849,0l82.143,82.144c7.69,7.69,7.69,20.158,0,27.849L132.796,489.257
	C102.474,519.576,53.132,519.585,22.804,489.257z"/>
<path style="fill:#28C3E4;" d="M410.558,101.501c-0.001-0.001-0.001-0.001-0.003-0.003L273.581,238.472
	c0.001,0.001,0.001,0.001,0.003,0.003v0.001c37.764,37.764,99.211,37.762,136.974,0
	C448.367,200.666,448.364,139.306,410.558,101.501z"/>
<path style="fill:#FF905E;" d="M237.471,384.581c7.69-7.69,7.69-20.158,0-27.849l-41.074-41.075L22.801,489.253
	c0.001,0.001,0.001,0.001,0.003,0.003v0.001c30.329,30.329,79.671,30.319,109.993,0L237.471,384.581z"/>
<g>
</g>
<g>
</g>
<g>
</g>
<g>
</g>
<g>
</g>
<g>
</g>
<g>
</g>
<g>
</g>
<g>
</g>
<g>
</g>
<g>
</g>
<g>
</g>
<g>
</g>
<g>
</g>
<g>
</g>
</svg>
