<?xml version="1.0" encoding="iso-8859-1"?>
<!-- Generator: Adobe Illustrator 19.0.0, SVG Export Plug-In . SVG Version: 6.00 Build 0)  -->
<svg version="1.1" id="Layer_1" xmlns="http://www.w3.org/2000/svg" xmlns:xlink="http://www.w3.org/1999/xlink" x="0px" y="0px"
	 viewBox="0 0 512 512" style="enable-background:new 0 0 512 512;" xml:space="preserve">
<path style="fill:#28D2E4;" d="M259.015,243.849h-93.881c-9.864,0-17.86-7.997-17.86-17.86V63.106c0-9.864,7.997-17.86,17.86-17.86
	h93.881c9.864,0,17.86,7.997,17.86,17.86v82.667c0,10.452-8.954,18.695-19.407,17.794c-0.145-0.013-0.425-0.027-0.937-0.027
	c-22.183,0-22.191,33.59,0,33.59c0.512,0,0.792-0.015,0.937-0.027c4.983-0.433,9.927,1.245,13.617,4.629
	c7.082,6.494,5.79,13.875,5.79,24.26C276.875,235.853,268.879,243.849,259.015,243.849z"/>
<path style="fill:#28C3E4;" d="M271.085,201.728c-3.69-3.383-8.634-5.062-13.617-4.629c-0.145,0.013-0.425,0.027-0.937,0.027
	c-22.191,0-22.183-33.59,0-33.59c0.512,0,0.792,0.015,0.937,0.027c10.453,0.901,19.407-7.342,19.407-17.794V63.106
	c0-9.864-7.997-17.86-17.86-17.86h-46.94V243.85h46.94c9.864,0,17.86-7.997,17.86-17.86
	C276.875,215.603,278.167,208.222,271.085,201.728z"/>
<path style="fill:#28D2E4;" d="M212.07,80.965c-9.864,0-17.86-7.997-17.86-17.86V17.86c0-9.864,7.997-17.86,17.86-17.86
	c9.864,0,17.86,7.997,17.86,17.86v45.245C229.931,72.97,221.935,80.965,212.07,80.965z"/>
<g>
	<path style="fill:#28C3E4;" d="M212.075,0v80.965c9.863-0.002,17.857-7.998,17.857-17.86V17.86
		C229.931,7.998,221.938,0.002,212.075,0z"/>
	<path style="fill:#28C3E4;" d="M282.419,80.965H141.731c-9.864,0-17.86-7.997-17.86-17.86s7.997-17.86,17.86-17.86h140.687
		c9.864,0,17.86,7.997,17.86,17.86C300.28,72.97,292.283,80.965,282.419,80.965z"/>
</g>
<path style="fill:#28B6E4;" d="M282.419,45.245h-70.344v35.721h70.344c9.864,0,17.86-7.997,17.86-17.86
	C300.28,53.241,292.283,45.245,282.419,45.245z"/>
<path style="fill:#28C3E4;" d="M282.419,243.845H141.731c-9.864,0-17.86-7.997-17.86-17.86c0-9.864,7.997-17.86,17.86-17.86h140.687
	c9.864,0,17.86,7.997,17.86,17.86C300.28,235.85,292.283,243.845,282.419,243.845z"/>
<path style="fill:#28B6E4;" d="M282.419,208.124h-70.344v35.721h70.344c9.864,0,17.86-7.997,17.86-17.86
	S292.283,208.124,282.419,208.124z"/>
<path style="fill:#808285;" d="M339.186,330.466c-9.864,0-17.86-7.997-17.86-17.86v-85.917l-39.671-16.546
	c-21.777-9.083-8.063-42.066,13.751-32.969l50.656,21.128c6.652,2.776,10.985,9.276,10.985,16.484v97.819
	C357.046,322.47,349.049,330.466,339.186,330.466z"/>
<path style="fill:#6D6E71;" d="M346.062,198.301l-6.882-2.871v135.036c0.002,0,0.005,0,0.006,0c9.864,0,17.86-7.997,17.86-17.86
	v-97.819C357.046,207.578,352.714,201.077,346.062,198.301z"/>
<path style="fill:#28D2E4;" d="M301.204,368.446h-166.36c-9.864,0-17.86-7.997-17.86-17.86c0-9.864,7.997-17.86,17.86-17.86h166.36
	c9.864,0,17.86,7.997,17.86,17.86C319.064,360.449,311.067,368.446,301.204,368.446z"/>
<path style="fill:#28C3E4;" d="M301.204,332.725h-89.128v35.721h89.128c9.864,0,17.86-7.997,17.86-17.86
	C319.064,340.722,311.067,332.725,301.204,332.725z"/>
<path style="fill:#808285;" d="M339.18,441.642c-9.864,0-17.86-7.997-17.86-17.86v-35.218c0-9.864,7.997-17.86,17.86-17.86
	s17.86,7.997,17.86,17.86v35.218C357.04,433.645,349.045,441.642,339.18,441.642z"/>
<path style="fill:#6D6E71;" d="M339.18,370.702L339.18,370.702v70.939l0,0c9.864,0,17.86-7.997,17.86-17.86v-35.218
	C357.04,378.698,349.045,370.702,339.18,370.702z"/>
<path style="fill:#28C3E4;" d="M339.18,512H134.844c-9.864,0-17.86-7.997-17.86-17.86v-70.358c0-9.864,7.997-17.86,17.86-17.86
	H339.18c9.864,0,17.86,7.997,17.86,17.86v70.358C357.04,504.003,349.045,512,339.18,512z"/>
<g>
	<path style="fill:#FFDB77;" d="M204.022,180.338c0-28.96,23.556-52.522,52.51-52.522c29.047,0,52.52,23.765,52.52,52.522
		c0,7.011-1.363,13.817-4.051,20.226C283.068,253.308,204.022,237.658,204.022,180.338z"/>
	<path style="fill:#FFDB77;" d="M339.18,406.423c-30.788,0-55.838-25.049-55.838-55.838s25.049-55.838,55.838-55.838
		s55.837,25.049,55.837,55.838S369.969,406.423,339.18,406.423z"/>
</g>
<path style="fill:#FF905E;" d="M339.18,294.748L339.18,294.748v111.674l0,0c30.788,0,55.837-25.049,55.837-55.838
	C395.016,319.796,369.969,294.748,339.18,294.748z"/>
<path style="fill:#28B6E4;" d="M339.18,405.921H212.075V512h127.106c9.864,0,17.86-7.997,17.86-17.86v-70.358
	C357.04,413.916,349.045,405.921,339.18,405.921z"/>
<path style="fill:#FF905E;" d="M256.537,127.817v104.98c19.502,0.241,39.142-9.815,48.464-32.232
	c2.689-6.411,4.051-13.216,4.051-20.226C309.053,151.584,285.582,127.82,256.537,127.817z"/>
<g>
</g>
<g>
</g>
<g>
</g>
<g>
</g>
<g>
</g>
<g>
</g>
<g>
</g>
<g>
</g>
<g>
</g>
<g>
</g>
<g>
</g>
<g>
</g>
<g>
</g>
<g>
</g>
<g>
</g>
</svg>
